<?xml version="1.0" encoding="utf-8"?>
<!-- Generator: Adobe Illustrator 22.0.1, SVG Export Plug-In . SVG Version: 6.00 Build 0)  -->
<svg version="1.1" id="Layer_1" xmlns="http://www.w3.org/2000/svg" xmlns:xlink="http://www.w3.org/1999/xlink" x="0px" y="0px"
	 viewBox="0 0 501.3 304.9" style="enable-background:new 0 0 501.3 304.9;" xml:space="preserve">
<style type="text/css">
	.st0{fill:#111112;}
	.st1{fill:url(#SVGID_1_);}
	.st2{fill:url(#SVGID_2_);}
	.st3{fill:url(#SVGID_3_);}
	.st4{fill:url(#SVGID_4_);}
	.st5{fill:url(#SVGID_5_);}
	.st6{fill:url(#SVGID_6_);}
	.st7{fill:url(#SVGID_7_);}
	.st8{fill:url(#SVGID_8_);}
	.st9{fill:url(#SVGID_9_);}
	.st10{fill:url(#SVGID_10_);}
	.st11{fill:url(#SVGID_11_);}
	.st12{fill:url(#SVGID_12_);}
	.st13{fill:url(#SVGID_13_);}
	.st14{fill:url(#SVGID_14_);}
	.st15{fill:url(#SVGID_15_);}
	.st16{fill:url(#SVGID_16_);}
	.st17{fill:url(#SVGID_17_);}
	.st18{fill:url(#SVGID_18_);}
	.st19{fill:url(#SVGID_19_);}
</style>
<g>
	<g>
		<path class="st0" d="M396,167.4c-9.3-21.2-22.4-43.2-22.2-47.8c0,0-1.2-7.9,3.4-10.3c4.6-2.3,11.8-4.2,0.3-4.9
			c-40.4,8.7-141.7-44.5-145.8-53.6c-3.7-3.6-3.8-1.5-5-0.9c-1.7,0.9-1.7,5.6-1.7,5.6s9.9,11.9-18.7,46.9
			c-28.6,35-27.9,57.1-27.9,57.1s4.4,12.3,31.4,33.8c0.9-0.8,1.9-1.6,2.9-2.1c1-0.6,2.2-1.1,3.4-1.5c-13.2-17.1-27.8-44.9-9.9-68.9
			c28.3-37.9,34.7-41.9,37-45.3c0.2-3.5,41.9,20.7,59.4,57.7l5.3,0.3c0,0,18.2-22.3,48.9-12.3c9.6,4,25.2,39.5,23,64.7
			c0,0-3.3,17.8-14.9,19.6c-11.5,1.8-11.5,1.8-11.5,1.8s15.3,5.9,28.9-0.5C388.4,203.7,405.3,188.5,396,167.4z"/>
		<linearGradient id="SVGID_1_" gradientUnits="userSpaceOnUse" x1="178.4756" y1="129.3292" x2="398.7649" y2="129.3292">
			<stop  offset="0" style="stop-color:#C59D3F"/>
			<stop  offset="0.1538" style="stop-color:#FFD95B"/>
			<stop  offset="0.2024" style="stop-color:#F6CF52"/>
			<stop  offset="0.2832" style="stop-color:#E1B73C"/>
			<stop  offset="0.3516" style="stop-color:#CCA12C"/>
			<stop  offset="0.5659" style="stop-color:#F9F6CD"/>
			<stop  offset="0.6108" style="stop-color:#F9F4C8"/>
			<stop  offset="0.663" style="stop-color:#F9EEBC"/>
			<stop  offset="0.7188" style="stop-color:#F9E7A8"/>
			<stop  offset="0.7772" style="stop-color:#F8DD8D"/>
			<stop  offset="0.8371" style="stop-color:#F7D16A"/>
			<stop  offset="0.8462" style="stop-color:#F7CF64"/>
			<stop  offset="1" style="stop-color:#A7873E"/>
		</linearGradient>
		<path class="st1" d="M396,167.4c-9.3-21.2-22.4-43.2-22.2-47.8c0,0-1.2-7.9,3.4-10.3c4.6-2.3,11.8-4.2,0.3-4.9
			c-40.4,8.7-141.7-44.5-145.8-53.6c-3.7-3.6-3.8-1.5-5-0.9c-1.7,0.9-1.7,5.6-1.7,5.6s9.9,11.9-18.7,46.9
			c-28.6,35-27.9,57.1-27.9,57.1s4.4,12.3,31.4,33.8c0.9-0.8,1.9-1.6,2.9-2.1c1-0.6,2.2-1.1,3.4-1.5c-13.2-17.1-27.8-44.9-9.9-68.9
			c28.3-37.9,34.7-41.9,37-45.3c0.2-3.5,41.9,20.7,59.4,57.7l5.3,0.3c0,0,18.2-22.3,48.9-12.3c9.6,4,25.2,39.5,23,64.7
			c0,0-3.3,17.8-14.9,19.6c-11.5,1.8-11.5,1.8-11.5,1.8s15.3,5.9,28.9-0.5C388.4,203.7,405.3,188.5,396,167.4z"/>
	</g>
	<linearGradient id="SVGID_2_" gradientUnits="userSpaceOnUse" x1="283.4909" y1="171.0537" x2="304.6431" y2="171.0537">
		<stop  offset="0" style="stop-color:#C59D3F"/>
		<stop  offset="0.1538" style="stop-color:#FFD95B"/>
		<stop  offset="0.2024" style="stop-color:#F6CF52"/>
		<stop  offset="0.2832" style="stop-color:#E1B73C"/>
		<stop  offset="0.3516" style="stop-color:#CCA12C"/>
		<stop  offset="0.5659" style="stop-color:#F9F6CD"/>
		<stop  offset="0.6108" style="stop-color:#F9F4C8"/>
		<stop  offset="0.663" style="stop-color:#F9EEBC"/>
		<stop  offset="0.7188" style="stop-color:#F9E7A8"/>
		<stop  offset="0.7772" style="stop-color:#F8DD8D"/>
		<stop  offset="0.8371" style="stop-color:#F7D16A"/>
		<stop  offset="0.8462" style="stop-color:#F7CF64"/>
		<stop  offset="1" style="stop-color:#A7873E"/>
	</linearGradient>
	<path class="st2" d="M298.3,144c0,0,18.3,26.1-7.1,54.2c0.6-10.2,1.3-17.6-7.6-27.7C295.2,149.5,298.3,144,298.3,144z"/>
	<linearGradient id="SVGID_3_" gradientUnits="userSpaceOnUse" x1="283.999" y1="50.1706" x2="365.6969" y2="50.1706">
		<stop  offset="0" style="stop-color:#C59D3F"/>
		<stop  offset="0.1538" style="stop-color:#FFD95B"/>
		<stop  offset="0.2024" style="stop-color:#F6CF52"/>
		<stop  offset="0.2832" style="stop-color:#E1B73C"/>
		<stop  offset="0.3516" style="stop-color:#CCA12C"/>
		<stop  offset="0.5659" style="stop-color:#F9F6CD"/>
		<stop  offset="0.6108" style="stop-color:#F9F4C8"/>
		<stop  offset="0.663" style="stop-color:#F9EEBC"/>
		<stop  offset="0.7188" style="stop-color:#F9E7A8"/>
		<stop  offset="0.7772" style="stop-color:#F8DD8D"/>
		<stop  offset="0.8371" style="stop-color:#F7D16A"/>
		<stop  offset="0.8462" style="stop-color:#F7CF64"/>
		<stop  offset="1" style="stop-color:#A7873E"/>
	</linearGradient>
	<path class="st3" d="M365.5,52.9c-0.7-2.1-2.9-3.2-4.9-2.6c-2,0.7-3.2,2.9-2.5,5c0.1,0.2,0.2,0.4,0.3,0.6c-0.9,0.7-1.8,1.5-2.8,2.4
		c0-0.2,0-0.3,0-0.6l-0.1-0.8l-0.8-0.3c-0.4-0.1-0.9-0.2-1.5,0.3l-0.1,0.1c-3.4,2.8-9.5,6.8-14.8,7.7c0.3-1,1.4-3.9,2.6-6
		c0.4,0,0.8-0.2,1.2-0.4c0.9-0.4,1.5-1.2,1.8-2.1c0.3-0.9,0.3-1.9-0.1-2.8c-0.4-0.9-1.2-1.6-2.1-1.9l0,0c-1.9-0.7-4,0.4-4.6,2.3
		c-0.1,0.4-0.2,0.9-0.2,1.3c-1.7,1.5-5,4-6.7,4.6l-0.1,0c-1.4-7.6,1.6-23.1,6.1-38.1c2.7-1.3,4.2-4.6,3.2-7.6
		c-1.1-3.4-4.6-5.2-7.9-4.2c-3.3,1-5.1,4.6-4,8c0.1,0.4,0.3,0.7,0.4,1.1c-5.8,14.8-13.1,29-18.9,34l-0.3-0.4c-1-1.6-2-5.5-2.5-7.8
		c0.3-0.3,0.5-0.7,0.7-1.2c0.7-1.9-0.3-4-2.2-4.7c-0.9-0.3-1.9-0.3-2.8,0.2c-0.9,0.4-1.5,1.2-1.8,2.1c-0.3,0.9-0.3,1.9,0.1,2.8
		c0.2,0.4,0.4,0.7,0.7,1c-0.3,2.2-1.1,4.8-1.5,6c-3.4-4.1-5.6-10.6-6.5-14.8l0-0.2c-0.2-0.8-0.6-1-1-1.2l-0.8-0.3l-0.6,0.6
		c-0.2,0.1-0.3,0.3-0.3,0.4c-0.2-1.1-0.5-2.2-0.7-3.1c1.8-0.8,2.8-2.9,2.2-4.8c-0.7-2.1-2.9-3.2-4.9-2.6c-1,0.3-1.8,1-2.3,2
		c-0.5,0.9-0.5,2-0.2,3c0.2,0.7,0.7,1.3,1.2,1.8c1.7,8,3.6,23.2-0.8,38.9l-0.4,1.3l6.9,2.4l0.4-1.5c2.1-8.1,1.6-18.3,0.4-27
		c1.8,6.8,5.3,14.5,13.3,15.6c2.6,0.4,7-0.9,15.5-16.5c4-7.4,7.8-15.9,10.2-21.6c-1.6,5.9-3.9,14.9-5.3,23.3
		c-2.9,17.5-0.3,21.2,2,22.6c2.1,1.2,4.2,1.7,6.3,1.7c5,0,9.8-2.8,13.8-5.8c-6.3,6.1-13,13.8-16.3,21.5l-0.6,1.4l6.9,2.4l0.5-1.3
		c4.6-11.3,13-22.4,23.5-31.3c0.4,0,0.9,0,1.3-0.2C365.1,57.2,366.2,55,365.5,52.9z M288.2,30L288.2,30c-0.1,0-0.3,0.1-0.4,0l-0.2,0
		l-0.2-0.1c-0.2-0.1-0.4-0.4-0.5-0.6c-0.1-0.3-0.1-0.6,0.1-0.9c0.1-0.2,0.3-0.4,0.6-0.5c0.5-0.2,1.1,0.2,1.3,0.7
		C289.1,29.2,288.8,29.8,288.2,30z M330.6,18.1c-0.2-0.3-0.4-0.6-0.5-1c-0.6-1.9,0.4-3.8,2.1-4.4c1.8-0.6,3.7,0.5,4.3,2.3
		c0.6,1.8-0.4,3.8-2.1,4.4l-0.6,0.2l-0.7,0c-0.6,0-1.2-0.2-1.6-0.6l-0.6-0.4L330.6,18.1z M362.1,55.2c-0.2,0.1-0.3,0.1-0.5,0
		l-0.2-0.1l-0.2-0.1c-0.1-0.1-0.3-0.3-0.4-0.6c-0.2-0.6,0.1-1.2,0.6-1.4c0.5-0.2,1.1,0.2,1.3,0.7l0,0C363,54.4,362.7,55,362.1,55.2z
		"/>
	<g>
		<path class="st0" d="M253.7,101.3c-20.2-1.1-37.5,14.3-38.6,34.5s14.3,37.5,34.5,38.6s37.5-14.3,38.6-34.5
			S273.9,102.4,253.7,101.3z M283.6,140.4c-0.9,16.4-14.9,28.9-31.3,28c-16.4-0.9-28.9-14.9-28-31.3c0.9-16.4,14.9-28.9,31.3-28
			C272,110,284.5,124,283.6,140.4z"/>
		<g>
			<linearGradient id="SVGID_4_" gradientUnits="userSpaceOnUse" x1="215.0587" y1="137.8314" x2="288.2971" y2="137.8314">
				<stop  offset="0" style="stop-color:#C59D3F"/>
				<stop  offset="0.1538" style="stop-color:#FFD95B"/>
				<stop  offset="0.2024" style="stop-color:#F6CF52"/>
				<stop  offset="0.2832" style="stop-color:#E1B73C"/>
				<stop  offset="0.3516" style="stop-color:#CCA12C"/>
				<stop  offset="0.5659" style="stop-color:#F9F6CD"/>
				<stop  offset="0.6108" style="stop-color:#F9F4C8"/>
				<stop  offset="0.663" style="stop-color:#F9EEBC"/>
				<stop  offset="0.7188" style="stop-color:#F9E7A8"/>
				<stop  offset="0.7772" style="stop-color:#F8DD8D"/>
				<stop  offset="0.8371" style="stop-color:#F7D16A"/>
				<stop  offset="0.8462" style="stop-color:#F7CF64"/>
				<stop  offset="1" style="stop-color:#A7873E"/>
			</linearGradient>
			<path class="st4" d="M253.7,101.3c-20.2-1.1-37.5,14.3-38.6,34.5s14.3,37.5,34.5,38.6s37.5-14.3,38.6-34.5
				S273.9,102.4,253.7,101.3z M283.6,140.4c-0.9,16.4-14.9,28.9-31.3,28c-16.4-0.9-28.9-14.9-28-31.3c0.9-16.4,14.9-28.9,31.3-28
				C272,110,284.5,124,283.6,140.4z"/>
		</g>
	</g>
	<linearGradient id="SVGID_5_" gradientUnits="userSpaceOnUse" x1="309.8078" y1="155.4474" x2="371.7224" y2="155.4474">
		<stop  offset="0" style="stop-color:#C59D3F"/>
		<stop  offset="0.1538" style="stop-color:#FFD95B"/>
		<stop  offset="0.2024" style="stop-color:#F6CF52"/>
		<stop  offset="0.2832" style="stop-color:#E1B73C"/>
		<stop  offset="0.3516" style="stop-color:#CCA12C"/>
		<stop  offset="0.5659" style="stop-color:#F9F6CD"/>
		<stop  offset="0.6108" style="stop-color:#F9F4C8"/>
		<stop  offset="0.663" style="stop-color:#F9EEBC"/>
		<stop  offset="0.7188" style="stop-color:#F9E7A8"/>
		<stop  offset="0.7772" style="stop-color:#F8DD8D"/>
		<stop  offset="0.8371" style="stop-color:#F7D16A"/>
		<stop  offset="0.8462" style="stop-color:#F7CF64"/>
		<stop  offset="1" style="stop-color:#A7873E"/>
	</linearGradient>
	<path class="st5" d="M342.5,124c-17.1-1-31.7,12.4-32.7,29.8c-1,17.4,12.1,32.3,29.1,33.2c17.1,1,31.7-12.4,32.7-29.8
		C372.6,139.8,359.6,124.9,342.5,124z M364.8,157.6c-0.8,14.4-13,25.5-27.1,24.7c-14.2-0.8-25-13.2-24.2-27.6s13-25.5,27.1-24.7
		C354.8,130.8,365.6,143.1,364.8,157.6z"/>
	<g>
		<linearGradient id="SVGID_6_" gradientUnits="userSpaceOnUse" x1="316.0404" y1="156.4985" x2="362.1401" y2="156.4985">
			<stop  offset="0" style="stop-color:#C59D3F"/>
			<stop  offset="0.1538" style="stop-color:#FFD95B"/>
			<stop  offset="0.2024" style="stop-color:#F6CF52"/>
			<stop  offset="0.2832" style="stop-color:#E1B73C"/>
			<stop  offset="0.3516" style="stop-color:#CCA12C"/>
			<stop  offset="0.5659" style="stop-color:#F9F6CD"/>
			<stop  offset="0.6108" style="stop-color:#F9F4C8"/>
			<stop  offset="0.663" style="stop-color:#F9EEBC"/>
			<stop  offset="0.7188" style="stop-color:#F9E7A8"/>
			<stop  offset="0.7772" style="stop-color:#F8DD8D"/>
			<stop  offset="0.8371" style="stop-color:#F7D16A"/>
			<stop  offset="0.8462" style="stop-color:#F7CF64"/>
			<stop  offset="1" style="stop-color:#A7873E"/>
		</linearGradient>
		<path class="st6" d="M339.1,180c-0.4,0-0.9,0-1.3,0c-12.7-0.7-22.4-11.8-21.7-24.7c0.7-12.9,11.6-22.8,24.3-22.1l0,0
			c12.7,0.7,22.4,11.8,21.7,24.7C361.4,170.3,351.2,180,339.1,180z M339.1,135.9c-10.6,0-19.6,8.5-20.2,19.5
			c-0.6,11.3,7.9,21.1,19,21.7c11.1,0.6,20.7-8.1,21.3-19.4c0.6-11.3-7.9-21.1-19-21.7C339.9,135.9,339.5,135.9,339.1,135.9z"/>
	</g>
	<linearGradient id="SVGID_7_" gradientUnits="userSpaceOnUse" x1="325.2387" y1="145.434" x2="338.9479" y2="145.434">
		<stop  offset="0" style="stop-color:#C59D3F"/>
		<stop  offset="0.1538" style="stop-color:#FFD95B"/>
		<stop  offset="0.2024" style="stop-color:#F6CF52"/>
		<stop  offset="0.2832" style="stop-color:#E1B73C"/>
		<stop  offset="0.3516" style="stop-color:#CCA12C"/>
		<stop  offset="0.5659" style="stop-color:#F9F6CD"/>
		<stop  offset="0.6108" style="stop-color:#F9F4C8"/>
		<stop  offset="0.663" style="stop-color:#F9EEBC"/>
		<stop  offset="0.7188" style="stop-color:#F9E7A8"/>
		<stop  offset="0.7772" style="stop-color:#F8DD8D"/>
		<stop  offset="0.8371" style="stop-color:#F7D16A"/>
		<stop  offset="0.8462" style="stop-color:#F7CF64"/>
		<stop  offset="1" style="stop-color:#A7873E"/>
	</linearGradient>
	<path class="st7" d="M338.9,144.4c-0.2,3.2-2.9,5.6-6.1,5.4c-0.4,0-0.8-0.1-1.2-0.2c-0.2,1.7-1.7,2.9-3.4,2.9
		c-1.8-0.1-3.2-1.6-3.1-3.4c0.1-1.5,1.2-2.7,2.5-3c-0.3-0.7-0.4-1.5-0.4-2.4c0.2-3.2,2.9-5.6,6.1-5.4
		C336.7,138.5,339.1,141.2,338.9,144.4z"/>
	<g>
		<linearGradient id="SVGID_8_" gradientUnits="userSpaceOnUse" x1="227.9261" y1="140.6927" x2="279.8035" y2="140.6927">
			<stop  offset="0" style="stop-color:#C59D3F"/>
			<stop  offset="0.1538" style="stop-color:#FFD95B"/>
			<stop  offset="0.2024" style="stop-color:#F6CF52"/>
			<stop  offset="0.2832" style="stop-color:#E1B73C"/>
			<stop  offset="0.3516" style="stop-color:#CCA12C"/>
			<stop  offset="0.5659" style="stop-color:#F9F6CD"/>
			<stop  offset="0.6108" style="stop-color:#F9F4C8"/>
			<stop  offset="0.663" style="stop-color:#F9EEBC"/>
			<stop  offset="0.7188" style="stop-color:#F9E7A8"/>
			<stop  offset="0.7772" style="stop-color:#F8DD8D"/>
			<stop  offset="0.8371" style="stop-color:#F7D16A"/>
			<stop  offset="0.8462" style="stop-color:#F7CF64"/>
			<stop  offset="1" style="stop-color:#A7873E"/>
		</linearGradient>
		<path class="st8" d="M253.9,166.6c-0.5,0-1,0-1.5,0c-14.3-0.8-25.2-13.1-24.4-27.4c0.4-6.9,3.4-13.3,8.6-17.9
			c5.2-4.6,11.8-6.9,18.7-6.6l0,0c6.9,0.4,13.3,3.4,17.9,8.6c4.6,5.2,6.9,11.8,6.6,18.7c-0.4,6.9-3.4,13.3-8.6,17.9
			C266.4,164.3,260.3,166.6,253.9,166.6z M253.8,117.6c-12.1,0-22.3,9.5-23,21.8c-0.7,12.7,9,23.6,21.8,24.3
			c6.2,0.3,12.1-1.7,16.7-5.8c4.6-4.1,7.3-9.8,7.7-15.9c0.3-6.2-1.7-12.1-5.8-16.7c-4.1-4.6-9.8-7.3-15.9-7.7l0,0
			C254.7,117.6,254.3,117.6,253.8,117.6z"/>
	</g>
	<g>
		<path class="st0" d="M250.6,127.9c-0.2,3.2-2.9,5.6-6.1,5.4c-0.5,0-0.9-0.1-1.3-0.2c-0.5,1.1-1.6,1.9-2.9,1.8
			c-1.7-0.1-2.9-1.5-2.8-3.2c0.1-1.2,0.8-2.2,1.9-2.6c-0.2-0.6-0.2-1.2-0.2-1.9c0.2-3.2,2.9-5.6,6.1-5.4
			C248.3,122,250.8,124.7,250.6,127.9z"/>
		<linearGradient id="SVGID_9_" gradientUnits="userSpaceOnUse" x1="237.367" y1="128.3695" x2="250.5931" y2="128.3695">
			<stop  offset="0" style="stop-color:#C59D3F"/>
			<stop  offset="0.1538" style="stop-color:#FFD95B"/>
			<stop  offset="0.2024" style="stop-color:#F6CF52"/>
			<stop  offset="0.2832" style="stop-color:#E1B73C"/>
			<stop  offset="0.3516" style="stop-color:#CCA12C"/>
			<stop  offset="0.5659" style="stop-color:#F9F6CD"/>
			<stop  offset="0.6108" style="stop-color:#F9F4C8"/>
			<stop  offset="0.663" style="stop-color:#F9EEBC"/>
			<stop  offset="0.7188" style="stop-color:#F9E7A8"/>
			<stop  offset="0.7772" style="stop-color:#F8DD8D"/>
			<stop  offset="0.8371" style="stop-color:#F7D16A"/>
			<stop  offset="0.8462" style="stop-color:#F7CF64"/>
			<stop  offset="1" style="stop-color:#A7873E"/>
		</linearGradient>
		<path class="st9" d="M250.6,127.9c-0.2,3.2-2.9,5.6-6.1,5.4c-0.5,0-0.9-0.1-1.3-0.2c-0.5,1.1-1.6,1.9-2.9,1.8
			c-1.7-0.1-2.9-1.5-2.8-3.2c0.1-1.2,0.8-2.2,1.9-2.6c-0.2-0.6-0.2-1.2-0.2-1.9c0.2-3.2,2.9-5.6,6.1-5.4
			C248.3,122,250.8,124.7,250.6,127.9z"/>
	</g>
	<g>
		<g>
			<path d="M264.8,257.1h10v0.2c0,1.8,0.4,3.3,1.3,4.3c0.9,1,2.1,1.5,3.6,1.5c1.2,0,2.2-0.4,3-1.1c0.8-0.8,1.2-1.7,1.2-2.9
				c0-0.9-0.3-1.8-0.9-2.6c-0.6-0.8-1.7-1.6-3.1-2.6c-0.8-0.5-1.9-1.2-3.3-2.1c-2.5-1.6-4.1-2.7-4.6-3.3c-1-1.2-1.8-2.4-2.3-3.6
				c-0.5-1.2-0.7-2.5-0.7-3.9c0-3.8,1.4-6.9,4.1-9.5c2.7-2.5,6.2-3.8,10.3-3.8c3.9,0,7.1,1.2,9.5,3.5c2.4,2.3,3.7,5.4,3.7,9.1v0.7
				l-10,0c-0.1-1.6-0.4-2.7-1-3.5c-0.6-0.8-1.5-1.2-2.7-1.2c-1,0-1.9,0.3-2.7,1c-0.7,0.7-1.1,1.5-1.1,2.4c0,1.5,1.6,3.2,4.9,5.3
				c0.5,0.3,1,0.6,1.3,0.8c3.3,2.1,5.6,4,7,5.8c1.3,1.8,2,3.9,2,6.3c0,4-1.4,7.4-4.2,10.1c-2.8,2.7-6.3,4-10.5,4
				c-4.6,0-8.2-1.2-10.8-3.6c-2.6-2.4-4-5.7-4-9.9c0-0.1,0-0.4,0-0.7C264.8,257.5,264.8,257.3,264.8,257.1z"/>
			<path d="M298.4,251.7c0-3.7,0.7-7.1,2.1-10.3c1.4-3.2,3.5-6,6.2-8.4c2-1.8,4.3-3.2,6.9-4.1c2.6-0.9,5.3-1.4,8.2-1.4
				c6,0,10.9,1.9,14.7,5.7c3.8,3.8,5.7,8.7,5.7,14.7c0,3.4-0.6,6.5-1.8,9.5c-1.2,3-2.9,5.7-5.1,8c-2.1,2.1-4.6,3.8-7.4,4.9
				c-2.9,1.2-5.9,1.7-9.3,1.7c-5.9,0-10.8-1.9-14.6-5.7C300.3,262.5,298.4,257.6,298.4,251.7z M321.3,236.7c-3.7,0-6.9,1.4-9.4,4.2
				c-2.5,2.8-3.8,6.4-3.8,10.6c0,3.3,1,6,3.1,8.1c2.1,2.1,4.7,3.2,7.9,3.2c3.8,0,6.9-1.4,9.5-4.2c2.6-2.8,3.9-6.3,3.9-10.4
				c0-3.5-1-6.3-3.1-8.4C327.4,237.8,324.7,236.7,321.3,236.7z"/>
			<path d="M351.6,271l-8.2-42.2h10l5.4,29.8l16-29.8h11L362.6,271H351.6z"/>
			<path d="M381.3,271l8.2-42.2h9.7l-8.2,42.2H381.3z M390.4,224.3l1.8-9.2h9.7l-1.8,9.2H390.4z"/>
			<path d="M442,256.2c-1.7,5-4.5,8.9-8.3,11.7c-3.8,2.8-8.4,4.2-13.7,4.2c-6,0-10.9-1.9-14.7-5.7c-3.8-3.8-5.7-8.7-5.7-14.7
				c0-3.6,0.7-7,2.1-10.1c1.4-3.2,3.4-6,6.1-8.3c2-1.8,4.3-3.2,6.8-4.1c2.5-0.9,5.2-1.4,8.1-1.4c5.3,0,9.7,1.4,13.3,4.3
				c3.6,2.9,5.9,6.8,7,11.7h-10c-1-2.2-2.3-3.9-4.1-5.1c-1.8-1.2-3.9-1.7-6.3-1.7c-3.9,0-7,1.4-9.5,4.1c-2.5,2.7-3.7,6.2-3.7,10.5
				c0,3.4,1,6.1,3.1,8.2c2.1,2.1,4.8,3.1,8.1,3.1c2.4,0,4.5-0.6,6.3-1.7c1.9-1.1,3.5-2.8,4.8-5H442z"/>
			<path d="M474.6,271l0.5-2.9c-1.5,1.4-3.1,2.4-4.9,3c-1.8,0.7-3.8,1-6,1c-5.8,0-10.6-1.9-14.2-5.7c-3.6-3.8-5.4-8.8-5.4-15
				c0-2.6,0.4-5.1,1.2-7.5c0.8-2.4,2-4.7,3.5-6.9c2.1-2.9,4.7-5.2,7.8-6.8c3.1-1.6,6.5-2.3,10.2-2.3c2.8,0,5.4,0.5,7.8,1.6
				s4.5,2.7,6.3,4.8l1-5.4h10.1l-8.4,42.2H474.6z M467.8,236.7c-3.7,0-6.8,1.4-9.5,4.2c-2.7,2.8-4,6.2-4,10.2c0,3.5,1,6.3,3,8.5
				c2,2.1,4.7,3.2,8,3.2c3.7,0,6.8-1.4,9.4-4.2c2.6-2.8,3.9-6.3,3.9-10.5c0-3.4-1-6.1-3.1-8.2C473.6,237.8,471,236.7,467.8,236.7z"
				/>
		</g>
		<g>
			<linearGradient id="SVGID_10_" gradientUnits="userSpaceOnUse" x1="315.0438" y1="314.8329" x2="446.8296" y2="183.0471">
				<stop  offset="0" style="stop-color:#C59D3F"/>
				<stop  offset="0.1538" style="stop-color:#FFD95B"/>
				<stop  offset="0.2024" style="stop-color:#F6CF52"/>
				<stop  offset="0.2832" style="stop-color:#E1B73C"/>
				<stop  offset="0.3516" style="stop-color:#CCA12C"/>
				<stop  offset="0.5659" style="stop-color:#F9F6CD"/>
				<stop  offset="0.6108" style="stop-color:#F9F4C8"/>
				<stop  offset="0.663" style="stop-color:#F9EEBC"/>
				<stop  offset="0.7188" style="stop-color:#F9E7A8"/>
				<stop  offset="0.7772" style="stop-color:#F8DD8D"/>
				<stop  offset="0.8371" style="stop-color:#F7D16A"/>
				<stop  offset="0.8462" style="stop-color:#F7CF64"/>
				<stop  offset="1" style="stop-color:#A7873E"/>
			</linearGradient>
			<path class="st10" d="M264.8,257.1h10v0.2c0,1.8,0.4,3.3,1.3,4.3c0.9,1,2.1,1.5,3.6,1.5c1.2,0,2.2-0.4,3-1.1
				c0.8-0.8,1.2-1.7,1.2-2.9c0-0.9-0.3-1.8-0.9-2.6c-0.6-0.8-1.7-1.6-3.1-2.6c-0.8-0.5-1.9-1.2-3.3-2.1c-2.5-1.6-4.1-2.7-4.6-3.3
				c-1-1.2-1.8-2.4-2.3-3.6c-0.5-1.2-0.7-2.5-0.7-3.9c0-3.8,1.4-6.9,4.1-9.5c2.7-2.5,6.2-3.8,10.3-3.8c3.9,0,7.1,1.2,9.5,3.5
				c2.4,2.3,3.7,5.4,3.7,9.1v0.7l-10,0c-0.1-1.6-0.4-2.7-1-3.5c-0.6-0.8-1.5-1.2-2.7-1.2c-1,0-1.9,0.3-2.7,1
				c-0.7,0.7-1.1,1.5-1.1,2.4c0,1.5,1.6,3.2,4.9,5.3c0.5,0.3,1,0.6,1.3,0.8c3.3,2.1,5.6,4,7,5.8c1.3,1.8,2,3.9,2,6.3
				c0,4-1.4,7.4-4.2,10.1c-2.8,2.7-6.3,4-10.5,4c-4.6,0-8.2-1.2-10.8-3.6c-2.6-2.4-4-5.7-4-9.9c0-0.1,0-0.4,0-0.7
				C264.8,257.5,264.8,257.3,264.8,257.1z"/>
			<linearGradient id="SVGID_11_" gradientUnits="userSpaceOnUse" x1="315.0438" y1="314.8329" x2="446.8296" y2="183.0471">
				<stop  offset="0" style="stop-color:#C59D3F"/>
				<stop  offset="0.1538" style="stop-color:#FFD95B"/>
				<stop  offset="0.2024" style="stop-color:#F6CF52"/>
				<stop  offset="0.2832" style="stop-color:#E1B73C"/>
				<stop  offset="0.3516" style="stop-color:#CCA12C"/>
				<stop  offset="0.5659" style="stop-color:#F9F6CD"/>
				<stop  offset="0.6108" style="stop-color:#F9F4C8"/>
				<stop  offset="0.663" style="stop-color:#F9EEBC"/>
				<stop  offset="0.7188" style="stop-color:#F9E7A8"/>
				<stop  offset="0.7772" style="stop-color:#F8DD8D"/>
				<stop  offset="0.8371" style="stop-color:#F7D16A"/>
				<stop  offset="0.8462" style="stop-color:#F7CF64"/>
				<stop  offset="1" style="stop-color:#A7873E"/>
			</linearGradient>
			<path class="st11" d="M298.4,251.7c0-3.7,0.7-7.1,2.1-10.3c1.4-3.2,3.5-6,6.2-8.4c2-1.8,4.3-3.2,6.9-4.1c2.6-0.9,5.3-1.4,8.2-1.4
				c6,0,10.9,1.9,14.7,5.7c3.8,3.8,5.7,8.7,5.7,14.7c0,3.4-0.6,6.5-1.8,9.5c-1.2,3-2.9,5.7-5.1,8c-2.1,2.1-4.6,3.8-7.4,4.9
				c-2.9,1.2-5.9,1.7-9.3,1.7c-5.9,0-10.8-1.9-14.6-5.7C300.3,262.5,298.4,257.6,298.4,251.7z M321.3,236.7c-3.7,0-6.9,1.4-9.4,4.2
				c-2.5,2.8-3.8,6.4-3.8,10.6c0,3.3,1,6,3.1,8.1c2.1,2.1,4.7,3.2,7.9,3.2c3.8,0,6.9-1.4,9.5-4.2c2.6-2.8,3.9-6.3,3.9-10.4
				c0-3.5-1-6.3-3.1-8.4C327.4,237.8,324.7,236.7,321.3,236.7z"/>
			<linearGradient id="SVGID_12_" gradientUnits="userSpaceOnUse" x1="315.0438" y1="314.8329" x2="446.8296" y2="183.0471">
				<stop  offset="0" style="stop-color:#C59D3F"/>
				<stop  offset="0.1538" style="stop-color:#FFD95B"/>
				<stop  offset="0.2024" style="stop-color:#F6CF52"/>
				<stop  offset="0.2832" style="stop-color:#E1B73C"/>
				<stop  offset="0.3516" style="stop-color:#CCA12C"/>
				<stop  offset="0.5659" style="stop-color:#F9F6CD"/>
				<stop  offset="0.6108" style="stop-color:#F9F4C8"/>
				<stop  offset="0.663" style="stop-color:#F9EEBC"/>
				<stop  offset="0.7188" style="stop-color:#F9E7A8"/>
				<stop  offset="0.7772" style="stop-color:#F8DD8D"/>
				<stop  offset="0.8371" style="stop-color:#F7D16A"/>
				<stop  offset="0.8462" style="stop-color:#F7CF64"/>
				<stop  offset="1" style="stop-color:#A7873E"/>
			</linearGradient>
			<path class="st12" d="M351.6,271l-8.2-42.2h10l5.4,29.8l16-29.8h11L362.6,271H351.6z"/>
			<linearGradient id="SVGID_13_" gradientUnits="userSpaceOnUse" x1="315.0438" y1="314.8329" x2="446.8296" y2="183.0471">
				<stop  offset="0" style="stop-color:#C59D3F"/>
				<stop  offset="0.1538" style="stop-color:#FFD95B"/>
				<stop  offset="0.2024" style="stop-color:#F6CF52"/>
				<stop  offset="0.2832" style="stop-color:#E1B73C"/>
				<stop  offset="0.3516" style="stop-color:#CCA12C"/>
				<stop  offset="0.5659" style="stop-color:#F9F6CD"/>
				<stop  offset="0.6108" style="stop-color:#F9F4C8"/>
				<stop  offset="0.663" style="stop-color:#F9EEBC"/>
				<stop  offset="0.7188" style="stop-color:#F9E7A8"/>
				<stop  offset="0.7772" style="stop-color:#F8DD8D"/>
				<stop  offset="0.8371" style="stop-color:#F7D16A"/>
				<stop  offset="0.8462" style="stop-color:#F7CF64"/>
				<stop  offset="1" style="stop-color:#A7873E"/>
			</linearGradient>
			<path class="st13" d="M381.3,271l8.2-42.2h9.7l-8.2,42.2H381.3z M390.4,224.3l1.8-9.2h9.7l-1.8,9.2H390.4z"/>
			<linearGradient id="SVGID_14_" gradientUnits="userSpaceOnUse" x1="315.0438" y1="314.8329" x2="446.8296" y2="183.0471">
				<stop  offset="0" style="stop-color:#C59D3F"/>
				<stop  offset="0.1538" style="stop-color:#FFD95B"/>
				<stop  offset="0.2024" style="stop-color:#F6CF52"/>
				<stop  offset="0.2832" style="stop-color:#E1B73C"/>
				<stop  offset="0.3516" style="stop-color:#CCA12C"/>
				<stop  offset="0.5659" style="stop-color:#F9F6CD"/>
				<stop  offset="0.6108" style="stop-color:#F9F4C8"/>
				<stop  offset="0.663" style="stop-color:#F9EEBC"/>
				<stop  offset="0.7188" style="stop-color:#F9E7A8"/>
				<stop  offset="0.7772" style="stop-color:#F8DD8D"/>
				<stop  offset="0.8371" style="stop-color:#F7D16A"/>
				<stop  offset="0.8462" style="stop-color:#F7CF64"/>
				<stop  offset="1" style="stop-color:#A7873E"/>
			</linearGradient>
			<path class="st14" d="M442,256.2c-1.7,5-4.5,8.9-8.3,11.7c-3.8,2.8-8.4,4.2-13.7,4.2c-6,0-10.9-1.9-14.7-5.7
				c-3.8-3.8-5.7-8.7-5.7-14.7c0-3.6,0.7-7,2.1-10.1c1.4-3.2,3.4-6,6.1-8.3c2-1.8,4.3-3.2,6.8-4.1c2.5-0.9,5.2-1.4,8.1-1.4
				c5.3,0,9.7,1.4,13.3,4.3c3.6,2.9,5.9,6.8,7,11.7h-10c-1-2.2-2.3-3.9-4.1-5.1c-1.8-1.2-3.9-1.7-6.3-1.7c-3.9,0-7,1.4-9.5,4.1
				c-2.5,2.7-3.7,6.2-3.7,10.5c0,3.4,1,6.1,3.1,8.2c2.1,2.1,4.8,3.1,8.1,3.1c2.4,0,4.5-0.6,6.3-1.7c1.9-1.1,3.5-2.8,4.8-5H442z"/>
			<linearGradient id="SVGID_15_" gradientUnits="userSpaceOnUse" x1="315.0438" y1="314.8329" x2="446.8296" y2="183.0471">
				<stop  offset="0" style="stop-color:#C59D3F"/>
				<stop  offset="0.1538" style="stop-color:#FFD95B"/>
				<stop  offset="0.2024" style="stop-color:#F6CF52"/>
				<stop  offset="0.2832" style="stop-color:#E1B73C"/>
				<stop  offset="0.3516" style="stop-color:#CCA12C"/>
				<stop  offset="0.5659" style="stop-color:#F9F6CD"/>
				<stop  offset="0.6108" style="stop-color:#F9F4C8"/>
				<stop  offset="0.663" style="stop-color:#F9EEBC"/>
				<stop  offset="0.7188" style="stop-color:#F9E7A8"/>
				<stop  offset="0.7772" style="stop-color:#F8DD8D"/>
				<stop  offset="0.8371" style="stop-color:#F7D16A"/>
				<stop  offset="0.8462" style="stop-color:#F7CF64"/>
				<stop  offset="1" style="stop-color:#A7873E"/>
			</linearGradient>
			<path class="st15" d="M474.6,271l0.5-2.9c-1.5,1.4-3.1,2.4-4.9,3c-1.8,0.7-3.8,1-6,1c-5.8,0-10.6-1.9-14.2-5.7
				c-3.6-3.8-5.4-8.8-5.4-15c0-2.6,0.4-5.1,1.2-7.5c0.8-2.4,2-4.7,3.5-6.9c2.1-2.9,4.7-5.2,7.8-6.8c3.1-1.6,6.5-2.3,10.2-2.3
				c2.8,0,5.4,0.5,7.8,1.6s4.5,2.7,6.3,4.8l1-5.4h10.1l-8.4,42.2H474.6z M467.8,236.7c-3.7,0-6.8,1.4-9.5,4.2c-2.7,2.8-4,6.2-4,10.2
				c0,3.5,1,6.3,3,8.5c2,2.1,4.7,3.2,8,3.2c3.7,0,6.8-1.4,9.4-4.2c2.6-2.8,3.9-6.3,3.9-10.5c0-3.4-1-6.1-3.1-8.2
				C473.6,237.8,471,236.7,467.8,236.7z"/>
		</g>
	</g>
	<linearGradient id="SVGID_16_" gradientUnits="userSpaceOnUse" x1="11.5896" y1="220.827" x2="256.4911" y2="220.827">
		<stop  offset="0" style="stop-color:#C59D3F"/>
		<stop  offset="0.1538" style="stop-color:#FFD95B"/>
		<stop  offset="0.2024" style="stop-color:#F6CF52"/>
		<stop  offset="0.2832" style="stop-color:#E1B73C"/>
		<stop  offset="0.3516" style="stop-color:#CCA12C"/>
		<stop  offset="0.5659" style="stop-color:#F9F6CD"/>
		<stop  offset="0.6108" style="stop-color:#F9F4C8"/>
		<stop  offset="0.663" style="stop-color:#F9EEBC"/>
		<stop  offset="0.7188" style="stop-color:#F9E7A8"/>
		<stop  offset="0.7772" style="stop-color:#F8DD8D"/>
		<stop  offset="0.8371" style="stop-color:#F7D16A"/>
		<stop  offset="0.8462" style="stop-color:#F7CF64"/>
		<stop  offset="1" style="stop-color:#A7873E"/>
	</linearGradient>
	<path class="st16" d="M239.7,253.5c-21.9-4.7-45.4-1.2-65,9.7c-7.6-8.7-4.2-22.6,2.9-31.7c7.1-9.1,17-15.5,24.1-24.6
		c2.4-3.1,4.4-7.8,1.6-10.6c-2-2.1-5.4-1.7-8.2-0.9c-6.8,1.8-13.3,5-18.9,9.3c3.2-4.1,6.4-8.4,7.6-13.5c0.4-1.6,0.5-3.2,0-4.7
		c-1.5-4.4-7.4-5.3-11.8-4c-4.4,1.3-8.5,4-13.1,4.1c3.6-7.3,4-16.2,1-23.8c-1.6-4-4.1-7.6-7.3-10.6c-2.4-2.2-5.1-4-8-5.3
		c-2.9-1.3-6.6-1.4-9.7-1.8c-6.9-0.7-13.8-0.9-20.7-0.5c-13.8,0.8-27.4,3.7-40.3,8.7c-12.8,4.9-24.9,11.9-35.5,20.6
		C27.1,183.2,17,195,13,209.3c-1.8,6.4-2.3,13.5,1,19.3c4.5,7.9,14.5,10.8,23.6,10.8c5,16,19.6,27.7,35.6,32.5
		c16,4.8,33.3,3.5,49.7,0.1c1.7-0.4,3.6-0.8,4.8-2.1c1.3-1.2,1.6-3.6,0.3-4.7c-1.2-1-3-0.7-4.5-0.3c-14.8,3.6-30.5,5.4-45.3,1.7
		c-14.8-3.7-28.7-13.6-34.1-27.8c23.4-3.2,45.8-13.4,63.7-28.9c5.8-5,11.3-10.9,13.6-18.3c2.3-7.4,0.5-16.4-5.9-20.7
		c-5.2-3.4-11.9-3.1-18-1.9c-16.5,3.2-32,11.6-43.7,23.7c-10.4,10.7-17.9,25.1-17.1,39.9c-5.6-0.3-11.8-0.8-15.5-5
		c-3.6-4.1-3.4-10.2-2.1-15.5c3.2-12.6,12-23.1,21.9-31.6c24.6-21.1,57.9-31.8,90.2-29.1c8.1,0.7,17.1,2.9,21.2,9.9
		c2.7,4.5,2.6,10.2,1.6,15.4c-1.1,5.9-3.5,11.7-7.8,15.8c-2.5,2.4-5.7,4.1-8.7,5.8c-14,7.9-27.3,17-39.6,27.2
		c-4.7,3.9-9.3,8-12.4,13.3c-0.9,1.6-1.7,3.3-1.5,5.1c0.7,4.8,7.3,5.5,12.1,4.6c25.8-5.2,48.5-23.7,58.8-47.8c0.8-1.8,1.5-3.6,2.8-5
		c1.2-1.4,2.9-2.2,4.6-2.9c5.1-2.2,10.6-3.4,16.2-3.5c-10.2,16.7-23.7,31.4-39.5,43c-1.4,1-2.9,2.1-3.7,3.7
		c-0.8,1.6-0.6,3.8,0.9,4.7c1.8,1.1,4.1-0.3,5.7-1.6c17.7-14,34.7-29.9,55.9-37.7c-8.1,10.3-19.2,18.1-26.8,28.8
		c-7.6,10.7-10.7,26.6-2.1,36.4c-9,5.6-16.9,13.1-22.9,21.9c-1.1,1.6-2.2,3.4-2.1,5.4c0.1,1.8,1.6,3.6,3.4,3.5c0.2,0,0.3,0,0.5-0.1
		c1.2-0.3,2-1.5,2.7-2.6c5.3-8.1,12.9-14.7,21.6-19c1.4-0.7,2.8-1.3,4.3-1c1,0.2,2,0.7,2.9,1.3c18.9,11,42.6,13.3,63.2,6.1
		c6.8-2.4,14.2-7.2,14.1-14.4C256.4,259.6,247.4,255.2,239.7,253.5z M65.9,263.1c0-0.2,0-0.4-0.1-0.6
		C65.8,262.7,65.9,262.9,65.9,263.1z M45.9,216c0.5-1.3,1-2.5,1.6-3.8c3.1-6.2,7.5-11.7,12.5-16.5c9.8-9.4,22.1-16.3,35.3-19.8
		c7.4-1.9,19.6-3,20.6,7.5c0.4,4-1.3,7.9-3.4,11.3c-4.7,7.5-11.7,13.3-19,18.1c-15.1,10-32.3,16.7-50.2,19.4
		C42.9,226.8,43.9,221.2,45.9,216z M123.1,220c-5.2,4.7-10.8,9.1-16.5,13.1c-2,1.4-3.9,2.8-5.9,4c-1.9,1.2-4,2.5-6.2,3.6
		c-1,0.5-1.9,0.9-2.8,1.1c-0.1,0-0.3,0-0.4,0.1c-0.1,0-0.3-0.1-0.4-0.1c0.3-0.6,0.5-0.8,0.5-0.8l0.1-0.1c0.6-0.7,1.2-1.4,1.8-2.2
		c3.4-4.3,8.1-7.9,12.4-11.3c8.3-6.7,17.1-12.6,26-18.3c0,0,0.1,0,0.1,0c1.6-1.1,3.3-2.1,4.9-3.1c0.1-0.1,0.2-0.1,0.3-0.2
		C132.8,210.7,128.1,215.5,123.1,220z M249.5,269.7c-0.2,0.5-0.6,1-1,1.4c-1,1-2.1,1.8-3.2,2.6c-0.7,0.4-2.1,1.6-3,1.6
		c0,0-0.1,0-0.1,0l-0.4,0.2c-1.2,0.5-2.3,1-3.3,1.3c-1.1,0.4-2.2,0.7-3.3,1c-2.3,0.5-4.7,0.9-7.2,1.2c-2.5,0.3-5,0.5-7.5,0.6
		c-4.6,0.2-9.2,0-13.8-0.6c-4.5-0.6-9.3-1.6-14-3.2c-3.8-1.3-7.5-3-10.5-5.3c-0.1-0.1-0.3-0.2-0.4-0.3c4.3-2.2,8.7-4.2,13.2-6
		c5.4-2.1,11-3.8,16.8-4.8l0.1,0c2.9-0.7,6.2-1.1,9.8-1.1c3.2,0,6.3,0.2,9.4,0.5c0.5,0.1,1.1,0.2,1.8,0.2c0.7,0.2,1.3,0.3,2,0.3
		c1.9,0.3,3.7,0.8,5.6,1.3c1.8,0.5,3.5,1.3,5,2.2c0.3,0.2,0.6,0.5,1,0.7c0.2,0.1,0.4,0.3,0.5,0.4l0.6,0.6l0.1,0
		c0.1,0.1,0.2,0.2,0.2,0.3c0.8,0.8,1.4,1.8,1.5,2.9C249.7,268.3,249.8,269,249.5,269.7z"/>
	<linearGradient id="SVGID_17_" gradientUnits="userSpaceOnUse" x1="184.4503" y1="224.7996" x2="252.1071" y2="224.7996">
		<stop  offset="0" style="stop-color:#C59D3F"/>
		<stop  offset="0.1538" style="stop-color:#FFD95B"/>
		<stop  offset="0.2024" style="stop-color:#F6CF52"/>
		<stop  offset="0.2832" style="stop-color:#E1B73C"/>
		<stop  offset="0.3516" style="stop-color:#CCA12C"/>
		<stop  offset="0.5659" style="stop-color:#F9F6CD"/>
		<stop  offset="0.6108" style="stop-color:#F9F4C8"/>
		<stop  offset="0.663" style="stop-color:#F9EEBC"/>
		<stop  offset="0.7188" style="stop-color:#F9E7A8"/>
		<stop  offset="0.7772" style="stop-color:#F8DD8D"/>
		<stop  offset="0.8371" style="stop-color:#F7D16A"/>
		<stop  offset="0.8462" style="stop-color:#F7CF64"/>
		<stop  offset="1" style="stop-color:#A7873E"/>
	</linearGradient>
	<path class="st17" d="M190.7,248.2c-0.1,0-0.3,0-0.4,0c-1.9-0.1-3.8-1-4.9-2.6c-0.9-1.4-1.1-3.2-0.8-4.9s1-3.2,1.8-4.7
		c2.4-4.7,5.5-9,8.5-13.3c2.9-4.1,5.9-8.2,9.1-12.2c0.4-0.5,0.9-1.1,1.4-1.4c0.9-0.5,2.1-0.6,3-0.1c0.9,0.5,1.6,1.5,1.7,2.5
		c0.2,1.7-1,3.2-2.1,4.6c-3.2,4-6.3,8.1-9.3,12.4c-1.5,2.1-2.9,4.3-4.3,6.5c-0.7,1.1-1.4,2.1-2,3.3c-0.6,0.9-0.6,2.1-1.2,3
		c0.1-0.1,1.3-0.5,1.5-0.6c0.6-0.4,1.1-0.9,1.7-1.2c1.3-0.8,2.7-1.8,3.9-2.7c5.8-3.6,16.6-18.3,25.1-22.4c3.8-2.7,20.8-10,22.2-11.3
		l1.1-0.6c1.3-1.3,2.8-1,4.2,0.3c1.4,1.3,1.4,1.8,0,3.2c-2.3,2.3-6,2.1-9,3c-5.8,1.8-11.4,5.8-16.4,9.1c-3.5,2.3-6.3,5.9-9.3,8.9
		c-2.5,2.6-5.1,5.6-7.4,8.4C202.6,243.2,194.6,248.2,190.7,248.2z M190.3,241.5C190.3,241.5,190.3,241.5,190.3,241.5
		C190.3,241.5,190.3,241.5,190.3,241.5z"/>
	<linearGradient id="SVGID_18_" gradientUnits="userSpaceOnUse" x1="211.5233" y1="199.4565" x2="221.3069" y2="199.4565">
		<stop  offset="0" style="stop-color:#C59D3F"/>
		<stop  offset="0.1538" style="stop-color:#FFD95B"/>
		<stop  offset="0.2024" style="stop-color:#F6CF52"/>
		<stop  offset="0.2832" style="stop-color:#E1B73C"/>
		<stop  offset="0.3516" style="stop-color:#CCA12C"/>
		<stop  offset="0.5659" style="stop-color:#F9F6CD"/>
		<stop  offset="0.6108" style="stop-color:#F9F4C8"/>
		<stop  offset="0.663" style="stop-color:#F9EEBC"/>
		<stop  offset="0.7188" style="stop-color:#F9E7A8"/>
		<stop  offset="0.7772" style="stop-color:#F8DD8D"/>
		<stop  offset="0.8371" style="stop-color:#F7D16A"/>
		<stop  offset="0.8462" style="stop-color:#F7CF64"/>
		<stop  offset="1" style="stop-color:#A7873E"/>
	</linearGradient>
	<path class="st18" d="M215,205.7c-0.5,0-1.1-0.1-1.8-0.5c-1.6-1-2.1-2.7-1.3-4.3l0-0.1c0.6-1,1.1-2,1.7-3l0.1-0.2
		c0.5-0.9,1-1.9,1.5-2.8c0.5-1,1.3-1.4,1.8-1.6c0.6-0.2,1.5-0.3,2.6,0.3c1.1,0.6,1.5,1.4,1.6,1.9c0.2,0.6,0.2,1.5-0.4,2.6
		c-0.5,0.9-1,1.9-1.5,2.9c-0.5,1-1,2-1.6,2.9c-0.5,1.1-1.3,1.5-1.8,1.7C215.6,205.7,215.3,205.7,215,205.7z"/>
	<linearGradient id="SVGID_19_" gradientUnits="userSpaceOnUse" x1="217.1186" y1="224.9488" x2="275.6119" y2="224.9488">
		<stop  offset="0" style="stop-color:#C59D3F"/>
		<stop  offset="0.1538" style="stop-color:#FFD95B"/>
		<stop  offset="0.2024" style="stop-color:#F6CF52"/>
		<stop  offset="0.2832" style="stop-color:#E1B73C"/>
		<stop  offset="0.3516" style="stop-color:#CCA12C"/>
		<stop  offset="0.5659" style="stop-color:#F9F6CD"/>
		<stop  offset="0.6108" style="stop-color:#F9F4C8"/>
		<stop  offset="0.663" style="stop-color:#F9EEBC"/>
		<stop  offset="0.7188" style="stop-color:#F9E7A8"/>
		<stop  offset="0.7772" style="stop-color:#F8DD8D"/>
		<stop  offset="0.8371" style="stop-color:#F7D16A"/>
		<stop  offset="0.8462" style="stop-color:#F7CF64"/>
		<stop  offset="1" style="stop-color:#A7873E"/>
	</linearGradient>
	<path class="st19" d="M229.9,248.3L229.9,248.3c-0.3,0-0.6,0-0.8-0.1c-0.1,0-0.1,0-0.2,0c-1.8-0.1-3.5-0.6-5.1-1.5
		c-1.5-0.7-2.7-1.7-3.8-3.1c-0.9-1.3-1.7-2.6-2.2-4c-0.5-1.5-0.8-3.1-0.7-4.7c0.1-1.7,0.4-3.3,1.1-4.7l0,0c1.7-3.5,4.4-5.8,8.2-6.9
		c1-0.3,2-0.1,2.8,0.5c0.7,0.5,1.1,1.3,1.2,2.1c0.1,0.7,0.1,1.4-0.2,2c-0.3,0.8-1,1.5-1.9,1.8l-0.2,0.1c-1.1,0.2-2.1,0.8-2.8,1.6
		c-0.8,0.8-1.3,1.8-1.5,3c-0.2,0.9-0.1,1.9,0.1,2.9c0.2,0.9,0.6,1.7,1.1,2.3l0.1,0.1c1.2,1.5,2.7,2.2,4.8,2.2c0.7,0,1.4-0.1,2.1-0.3
		c0.8-0.2,1.6-0.4,2.4-0.7c0.1,0,0.2-0.1,0.3-0.1c0.3-0.2,0.6-0.4,0.9-0.6c1.5-1.3,2.5-2.9,2.9-5c0.5-2.2,0.5-4.4,0-6.4l0,0
		c-0.3-1.4-0.7-2.9-1.3-4.4c-0.6-1.7-0.9-3.5-0.9-5.3l0-0.2c0.1-1.4,0.4-2.8,0.9-4.2c0.5-1.3,1.1-2.6,1.8-3.8c1.9-3.2,4.4-6,7.4-8.5
		l0.2-0.1c1.8-1.2,3.3-0.6,4.2,0.3c1,1,1.1,1.9,1.1,2.5c0,0.6-0.3,1.5-1.2,2.3c-1.1,0.9-2.1,1.9-3,3l-0.1,0.1
		c-0.9,0.9-1.7,1.9-2.5,3c-0.7,1.1-1.3,2.2-1.7,3.3l0,0c-0.4,1.2-0.5,2.3-0.3,3.3c0.3,1.3,0.6,2.7,1,4.2c0.6,1.8,1,3.5,1.2,5.3
		c0.2,1.5,0.2,3.1,0,4.7c1.8-1.3,3.5-2.8,5.2-4.3c3.3-3,6.5-6.2,9.6-9.3l5.2-5.5c1.7-1.8,3.3-3.6,4.8-5.4l0.1-0.1
		c0.6-0.6,1.4-0.9,2.3-0.9c0.9,0,1.7,0.3,2.3,0.9l0.1,0.1c1.2,1.4,1.2,3.2-0.1,4.5c-0.5,0.6-1.1,1.3-1.7,2c-0.6,0.7-1.2,1.4-1.7,2.1
		l0,0.1c-2.9,3.2-5.9,6.4-8.9,9.4c-3.1,3-6.2,5.9-9.4,8.7c-1.8,1.6-3.6,3-5.5,4.4c-1.9,1.4-3.9,2.6-5.9,3.8
		c-1.2,0.6-2.4,1.2-3.6,1.7c-1.2,0.7-2.5,1.2-3.9,1.5c-0.7,0.1-1.4,0.3-2,0.3C231.2,248.2,230.6,248.3,229.9,248.3L229.9,248.3z"/>
</g>
</svg>
